<?xml version="1.0" encoding="UTF-8" standalone="no"?>
<!-- Generator: Adobe Illustrator 15.1.0, SVG Export Plug-In  -->

<svg
   xmlns:dc="http://purl.org/dc/elements/1.1/"
   xmlns:cc="http://creativecommons.org/ns#"
   xmlns:rdf="http://www.w3.org/1999/02/22-rdf-syntax-ns#"
   xmlns:svg="http://www.w3.org/2000/svg"
   xmlns="http://www.w3.org/2000/svg"
   xmlns:sodipodi="http://sodipodi.sourceforge.net/DTD/sodipodi-0.dtd"
   xmlns:inkscape="http://www.inkscape.org/namespaces/inkscape"
   version="1.0"
   x="0px"
   y="0px"
   width="180px"
   height="45px"
   viewBox="0 -0.759 180 45"
   style="enable-background:new 0 -0.759 180 45;"
   xml:space="preserve"
   id="svg48"
   sodipodi:docname="logo.svg"
   inkscape:version="0.92.3 (2405546, 2018-03-11)"><metadata
   id="metadata52"><rdf:RDF><cc:Work
       rdf:about=""><dc:format>image/svg+xml</dc:format><dc:type
         rdf:resource="http://purl.org/dc/dcmitype/StillImage" /></cc:Work></rdf:RDF></metadata><sodipodi:namedview
   pagecolor="#ffffff"
   bordercolor="#666666"
   borderopacity="1"
   objecttolerance="10"
   gridtolerance="10"
   guidetolerance="10"
   inkscape:pageopacity="0"
   inkscape:pageshadow="2"
   inkscape:window-width="1680"
   inkscape:window-height="987"
   id="namedview50"
   showgrid="false"
   inkscape:zoom="4.934034"
   inkscape:cx="77.565934"
   inkscape:cy="19.366091"
   inkscape:window-x="-8"
   inkscape:window-y="-8"
   inkscape:window-maximized="1"
   inkscape:current-layer="svg48" />
<style
   type="text/css"
   id="style2">
<![CDATA[
	.st0{fill:#4E4E4E;}
	.st1{letter-spacing:1.715;}
	.st2{font-family:'BebasNeueRegular';}
	.st3{letter-spacing:2;}
	.st4{font-size:27;}
]]>
</style>
<defs
   id="defs4">
</defs>
<path
   class="st0"
   d="M85.667,32.638c1.916-0.458,1.045-3.098-0.801-2.642l-10.811,2.867c-1.854,0.514-0.988,3.032,0.867,2.628  L85.667,32.638z"
   id="path6"
   style="fill:#000000" />
<path
   class="st0"
   d="M85.667,36.979c1.916-0.51,1.045-3.084-0.801-2.57L74.055,37.21c-1.854,0.518-0.988,3.088,0.867,2.57  L85.667,36.979z"
   id="path8"
   style="fill:#000000" />
<path
   class="st0"
   d="M82.45,40.129c0-0.349-0.058-0.576-0.118-0.693l-4.883,1.259c0.307,1.032,1.3,1.716,2.475,1.716  C81.287,42.411,82.45,41.327,82.45,40.129"
   id="path10"
   style="fill:#000000" />
<path
   class="st0"
   d="M73.756,13.534c0,0.021,0.008,0.048,0.008,0.048s-0.012-0.035-0.013-0.048H73.756z"
   id="path12"
   style="fill:#000000" />
<polygon
   class="st0"
   points="77.191,21.548 75.564,18.074 76.569,24.92 78.377,24.92 78.377,20.997 "
   id="polygon14"
   style="fill:#000000" />
<polygon
   class="st0"
   points="84.31,15.555 81.775,18.57 79.111,16.338 80.769,19.881 78.398,20.987 82.315,20.987 82.315,24.919   82.937,24.919 84.317,15.555 "
   id="polygon16"
   style="fill:#000000" />
<polygon
   class="st0"
   points="78.759,16.042 79.165,15.554 75.195,15.554 75.55,17.975 79.09,16.319 "
   id="polygon18"
   style="fill:#000000" />
<path
   class="st0"
   d="M91.679,11.953C91.866,5.145,86.55-0.061,79.577,0c-7.112-0.062-12.357,5.145-12.23,11.952  c0.241,8.975,6.169,9.205,6.169,15.616v0.801c-1.596,0.57-0.735,2.915,1.047,2.457l10.751-2.801c1.424-0.4,1.301-1.885,0.437-2.405  C86.858,20.987,91.552,19.903,91.679,11.953 M69.07,12.093C69.07,5.981,73.336,1.8,79.519,1.8c6.105,0,10.432,4.181,10.432,10.293  c0,4.8-2.314,6.768-4.149,9.338c0.283-1.904,0.657-4.382,1.151-7.614l0.05-0.116c0.079-0.157,0.256-0.541,0.019-0.92  c-0.248-0.41-0.753-0.493-1.652-0.51c-0.011,0-11.295-0.062-11.295-0.062c-0.597,0-1.252,0.054-1.573,0.506  c-0.281,0.404-0.117,0.828-0.054,1.011l0.019,0.039l1.438,8.756C72.089,19.354,69.07,17.602,69.07,12.093 M85.662,13.629  l-2.037,13.25c-0.022,0.072-0.242,0.241-0.543,0.241c-0.007,0-6.567,0.04-6.567,0.04c-0.312,0-0.539-0.171-0.56-0.25  c0-0.004-2.199-13.367-2.199-13.377c0.083-0.008,0.16-0.012,0.31-0.012c0.002,0,3.629,0.018,6.771,0.031l1.095,0.006  c1.91,0.009,3.419,0.015,3.419,0.015s0.154,0.018,0.313,0.029L85.662,13.629z"
   id="path20"
   style="fill:#000000" />
<g
   id="g32"
   style="fill:#000000">
	<path
   class="st0"
   d="M5.507,20.541c2.942,0,4.292,1.782,4.292,4.697v9.528c0,2.889-1.35,4.67-4.292,4.67H1.08V20.541H5.507z    M5.479,37.52c1.512,0,2.24-0.945,2.24-2.673v-9.718c0-1.727-0.729-2.672-2.268-2.672H3.186V37.52H5.479z"
   id="path22"
   style="fill:#000000" />
	<path
   class="st0"
   d="M18.683,20.541c2.969,0,4.211,1.512,4.211,4.319v1.539c0,2.078-0.729,3.373-2.349,3.887   c1.728,0.513,2.375,1.916,2.375,3.941v2.941c0,0.837,0.027,1.619,0.378,2.268h-2.133c-0.242-0.54-0.351-1.025-0.351-2.295v-2.969   c0-2.133-0.999-2.807-2.753-2.807h-1.484v8.07h-2.105V20.541H18.683z M18.143,29.449c1.673,0,2.672-0.54,2.672-2.591v-1.809   c0-1.701-0.621-2.592-2.187-2.592h-2.051v6.991H18.143z"
   id="path24"
   style="fill:#000000" />
	<path
   class="st0"
   d="M29.915,20.541v18.895H27.81V20.541H29.915z"
   id="path26"
   style="fill:#000000" />
	<path
   class="st0"
   d="M36.638,39.436h-1.89V20.541h2.672L41.793,34.2V20.541h1.862v18.895H41.47l-4.832-15.277V39.436z"
   id="path28"
   style="fill:#000000" />
	<path
   class="st0"
   d="M51.73,31.231l-1.106,1.861v6.344h-2.105V20.541h2.105v9.124l5.021-9.124h2.132l-4.777,8.611l4.939,10.284   h-2.159L51.73,31.231z"
   id="path30"
   style="fill:#000000" />
</g>
<g
   id="g46"
   style="fill:#000000">
	<path
   class="st0"
   d="M105.946,25.076v0.513h-1.998v-0.621c0-1.7-0.647-2.699-2.159-2.699s-2.159,0.999-2.159,2.672   c0,4.237,6.343,4.643,6.343,9.96c0,2.861-1.376,4.725-4.265,4.725c-2.888,0-4.237-1.863-4.237-4.725v-1.079h1.97v1.188   c0,1.7,0.702,2.699,2.214,2.699s2.213-0.999,2.213-2.699c0-4.211-6.315-4.616-6.315-9.934c0-2.915,1.35-4.724,4.184-4.724   C104.597,20.352,105.946,22.215,105.946,25.076z"
   id="path34"
   style="fill:#000000" />
	<path
   class="st0"
   d="M117.476,39.409h-2.024l-3.131-15.035v15.063h-1.836V20.541h2.942l3.104,15.088l2.997-15.088h2.941v18.895   h-1.997V24.239L117.476,39.409z"
   id="path36"
   style="fill:#000000" />
	<path
   class="st0"
   d="M129.464,35.629l-0.729,3.807h-1.943l3.617-18.895h3.05l3.617,18.895h-2.105l-0.729-3.807H129.464z    M129.734,33.822h4.211l-2.133-10.905L129.734,33.822z"
   id="path38"
   style="fill:#000000" />
	<path
   class="st0"
   d="M145.637,20.541c2.969,0,4.21,1.512,4.21,4.319v1.539c0,2.078-0.729,3.373-2.348,3.887   c1.728,0.513,2.375,1.916,2.375,3.941v2.941c0,0.837,0.027,1.619,0.378,2.268h-2.132c-0.243-0.54-0.352-1.025-0.352-2.295v-2.969   c0-2.133-0.999-2.807-2.753-2.807h-1.484v8.07h-2.105V20.541H145.637z M145.097,29.449c1.673,0,2.672-0.54,2.672-2.591v-1.809   c0-1.701-0.621-2.592-2.187-2.592h-2.051v6.991H145.097z"
   id="path40"
   style="fill:#000000" />
	<path
   class="st0"
   d="M157.517,39.436V22.458h-3.482v-1.917h9.07v1.917h-3.482v16.979H157.517z"
   id="path42"
   style="fill:#000000" />
	<path
   class="st0"
   d="M177.443,24.933c0,3.213-2.299,5.575-5.417,5.575c-3.117,0-5.417-2.362-5.417-5.575   c0-3.212,2.3-5.574,5.417-5.574C175.145,19.359,177.443,21.721,177.443,24.933z M167.413,24.933c0,2.74,1.952,4.787,4.613,4.787   c2.662,0,4.614-2.047,4.614-4.787c0-2.74-1.952-4.787-4.614-4.787C169.365,20.146,167.413,22.193,167.413,24.933z M172.105,21.563   c1.196,0,1.717,0.614,1.717,1.764v0.158c0,0.818-0.269,1.354-0.914,1.59c0.662,0.221,0.914,0.771,0.914,1.575v0.724   c0,0.348,0.016,0.662,0.173,0.93h-0.897c-0.095-0.221-0.126-0.409-0.126-0.93V26.65c0-0.882-0.426-1.134-1.149-1.134h-0.583v2.787   h-0.851v-6.74H172.105z M171.948,24.713c0.646,0,1.008-0.252,1.008-1.04v-0.252c0-0.692-0.236-1.07-0.897-1.07h-0.819v2.362   H171.948z"
   id="path44"
   style="fill:#000000" />
</g>
</svg>